<?xml version="1.0" standalone="no"?>
<!DOCTYPE svg PUBLIC "-//W3C//DTD SVG 20010904//EN"
 "http://www.w3.org/TR/2001/REC-SVG-20010904/DTD/svg10.dtd">
<svg version="1.0" xmlns="http://www.w3.org/2000/svg"
 width="512.000000pt" height="512.000000pt" viewBox="0 0 512.000000 512.000000"
 preserveAspectRatio="xMidYMid meet">
<metadata>
Created by potrace 1.14, written by Peter Selinger 2001-2017
</metadata>
<g transform="translate(0.000000,512.000000) scale(0.100000,-0.100000)"
fill="#000000" stroke="none">
<path d="M3794 3958 c-34 -9 -58 -41 -129 -173 -21 -38 -50 -92 -65 -120 -39
-71 -270 -497 -312 -575 -58 -107 -91 -167 -175 -320 -44 -80 -97 -176 -117
-213 -20 -37 -46 -83 -56 -102 -11 -20 -52 -95 -92 -168 -40 -72 -80 -145 -89
-162 -9 -16 -28 -51 -40 -77 -13 -27 -27 -48 -31 -48 -5 0 -8 -4 -8 -9 0 -5
-72 -140 -159 -300 -87 -161 -161 -305 -163 -321 -8 -56 47 -115 98 -105 11 2
25 4 32 4 21 1 59 48 96 119 19 37 46 87 60 112 14 25 34 61 44 80 20 39 70
130 145 265 28 50 73 133 100 185 27 52 55 102 61 110 6 8 20 33 31 55 11 22
29 56 41 75 11 19 45 80 74 135 30 55 63 116 74 135 12 19 32 58 46 85 14 28
27 52 30 55 3 3 13 21 24 40 10 19 30 58 46 85 15 28 49 91 75 140 55 102 131
243 145 265 5 8 21 38 36 65 15 28 67 124 117 215 177 325 189 351 184 393 -8
57 -64 91 -123 75z"/>
<path d="M2155 3868 c-28 -16 -43 -38 -49 -73 -5 -27 -13 -350 -21 -795 -1
-96 -5 -186 -8 -200 -4 -14 -9 -45 -12 -70 -40 -344 -228 -822 -363 -928 -38
-29 -102 -57 -102 -44 0 4 -9 8 -21 9 -11 1 -27 7 -34 13 -40 33 -89 207 -102
363 -11 133 -5 408 12 497 2 14 7 48 10 75 7 65 12 94 42 255 30 163 64 296
105 410 49 139 54 165 34 195 -34 51 -106 64 -150 26 -31 -26 -83 -164 -130
-345 -21 -80 -31 -124 -51 -226 -6 -32 -23 -133 -30 -185 -3 -22 -8 -49 -10
-61 -2 -11 -7 -45 -10 -75 -3 -30 -8 -67 -10 -84 -8 -50 -18 -235 -18 -320 0
-149 13 -263 47 -424 57 -264 253 -389 456 -290 114 57 205 165 296 354 24 49
44 86 45 80 0 -5 1 -123 1 -261 1 -278 5 -300 58 -326 41 -20 85 -9 117 27
l22 25 1 593 c1 640 5 1013 15 1453 l6 281 -31 32 c-34 33 -77 41 -115 19z"/>
<path d="M972 3308 l-23 -12 28 -11 28 -12 -22 -12 c-19 -10 -24 -9 -34 7 -11
18 -15 17 -63 -19 -28 -22 -55 -39 -59 -39 -5 0 -21 -8 -35 -19 -15 -10 -88
-54 -162 -96 -226 -130 -377 -246 -435 -334 -35 -52 -55 -131 -45 -176 4 -19
6 -35 4 -35 -3 0 5 -18 16 -41 30 -58 93 -117 196 -184 49 -32 127 -84 174
-115 206 -139 493 -300 534 -300 63 0 96 36 96 105 0 41 -24 68 -95 106 -105
57 -375 222 -525 322 -170 114 -171 115 -192 146 -21 30 -9 58 54 117 38 36
196 149 253 180 199 108 390 230 427 271 36 39 26 107 -19 143 -28 22 -65 25
-101 8z"/>
<path d="M4091 3299 c-49 -29 -60 -79 -31 -134 13 -25 148 -115 330 -220 191
-110 295 -181 362 -246 61 -60 65 -76 33 -125 -22 -34 -382 -268 -658 -429
-54 -31 -106 -66 -116 -77 -40 -43 -30 -118 20 -143 39 -21 72 -19 122 6 67
34 274 157 367 217 257 168 370 245 404 278 50 48 86 126 86 185 0 85 -26 137
-109 219 -89 88 -195 162 -416 290 -88 51 -193 116 -234 143 -81 57 -114 64
-160 36z m764 -659 c-3 -5 -12 -10 -18 -10 -7 0 -6 4 3 10 19 12 23 12 15 0z"/>
</g>
</svg>
